<svg width="30" height="29" viewBox="0 0 30 29" fill="none" xmlns="http://www.w3.org/2000/svg">
<path d="M8.19012 6.00002L9.05784 5.50297C8.8799 5.19233 8.54948 5.0005 8.19148 5.00002C7.83348 4.99953 7.50254 5.19045 7.32375 5.50061L8.19012 6.00002ZM14.3742 16.796V17.796C14.7308 17.796 15.0605 17.606 15.2394 17.2975C15.4182 16.9889 15.4192 16.6084 15.2419 16.2989L14.3742 16.796ZM1.96689 16.796L1.10052 16.2966C0.922159 16.606 0.922354 16.987 1.10103 17.2963C1.27971 17.6055 1.60974 17.796 1.96689 17.796V16.796ZM1.9799 16.796L2.8427 17.3015C3.02389 16.9923 3.02573 16.6097 2.84752 16.2988C2.66931 15.9878 2.33831 15.796 1.9799 15.796V16.796ZM14.3687 16.796V15.796C14.0103 15.796 13.6793 15.9878 13.5011 16.2988C13.3228 16.6097 13.3247 16.9923 13.5059 17.3015L14.3687 16.796ZM7.32239 6.49706L13.5065 17.293L15.2419 16.2989L9.05784 5.50297L7.32239 6.49706ZM2.83325 17.2954L9.05648 6.49942L7.32375 5.50061L1.10052 16.2966L2.83325 17.2954ZM1.9799 15.796H1.96689V17.796H1.9799V15.796ZM2 20.4177C2 19.2791 2.30724 18.2154 2.8427 17.3015L1.1171 16.2904C0.40685 17.5026 0 18.9141 0 20.4177H2ZM8.17429 26.5919C4.76432 26.5919 2 23.8276 2 20.4177H0C0 24.9322 3.65975 28.5919 8.17429 28.5919V26.5919ZM14.3486 20.4177C14.3486 23.8276 11.5843 26.5919 8.17429 26.5919V28.5919C12.6888 28.5919 16.3486 24.9322 16.3486 20.4177H14.3486ZM13.5059 17.3015C14.0413 18.2154 14.3486 19.2791 14.3486 20.4177H16.3486C16.3486 18.9141 15.9417 17.5026 15.2315 16.2904L13.5059 17.3015ZM14.3742 15.796H14.3687V17.796H14.3742V15.796Z" fill="#4F43D1"/>
<path d="M23.3184 1.00002L24.1861 0.502971C24.0082 0.192328 23.6778 0.000504315 23.3198 1.62125e-05C22.9618 -0.00047195 22.6308 0.19045 22.4521 0.500606L23.3184 1.00002ZM27.8927 8.98567V9.98567C28.2494 9.98567 28.579 9.79572 28.7579 9.48715C28.9367 9.17858 28.9377 8.79811 28.7604 8.48863L27.8927 8.98567ZM18.7152 8.98567L17.8488 8.48626C17.6704 8.79568 17.6706 9.17673 17.8493 9.48597C18.028 9.7952 18.358 9.98567 18.7152 9.98567V8.98567ZM18.7248 8.98567L19.5876 9.49121C19.7688 9.18198 19.7706 8.79942 19.5924 8.48845C19.4142 8.17749 19.0832 7.98567 18.7248 7.98567V8.98567ZM27.8887 8.98567V7.98567C27.5303 7.98567 27.1993 8.17749 27.021 8.48845C26.8428 8.79942 26.8447 9.18198 27.0259 9.49121L27.8887 8.98567ZM22.4507 1.49706L27.025 9.48272L28.7604 8.48863L24.1861 0.502971L22.4507 1.49706ZM19.5815 9.48508L24.1848 1.49942L22.4521 0.500606L17.8488 8.48626L19.5815 9.48508ZM18.7248 7.98567H18.7152V9.98567H18.7248V7.98567ZM19 11.6646C19 10.8699 19.2143 10.1284 19.5876 9.49121L17.862 8.48013C17.3139 9.41558 17 10.5049 17 11.6646H19ZM23.3067 15.9713C20.9282 15.9713 19 14.0431 19 11.6646H17C17 15.1477 19.8236 17.9713 23.3067 17.9713V15.9713ZM27.6135 11.6646C27.6135 14.0431 25.6853 15.9713 23.3067 15.9713V17.9713C26.7899 17.9713 29.6135 15.1477 29.6135 11.6646H27.6135ZM27.0259 9.49121C27.3992 10.1284 27.6135 10.8699 27.6135 11.6646H29.6135C29.6135 10.5049 29.2996 9.41558 28.7515 8.48013L27.0259 9.49121ZM27.8927 7.98567H27.8887V9.98567H27.8927V7.98567Z" fill="#4F43D1"/>
</svg>
