<svg width="18" height="17" viewBox="0 0 18 17" fill="none" xmlns="http://www.w3.org/2000/svg">
<path d="M8.88609 13.0159C11.2312 13.0159 13.1323 11.1148 13.1323 8.7697C13.1323 6.42459 11.2312 4.5235 8.88609 4.5235C6.54098 4.5235 4.63989 6.42459 4.63989 8.7697C4.63989 11.1148 6.54098 13.0159 8.88609 13.0159Z" stroke="#4F43D1" stroke-miterlimit="10" stroke-linecap="round" stroke-linejoin="round"/>
<path d="M14.0959 5.9389L15.7523 5.06557" stroke="#4F43D1" stroke-miterlimit="10" stroke-linecap="round" stroke-linejoin="round"/>
<path d="M12.1686 3.83089L13.2226 2.26491" stroke="#4F43D1" stroke-miterlimit="10" stroke-linecap="round" stroke-linejoin="round"/>
<path d="M9.45837 2.86717L9.66918 1.00005" stroke="#4F43D1" stroke-miterlimit="10" stroke-linecap="round" stroke-linejoin="round"/>
<path d="M6.62746 3.25867L5.93481 1.54212" stroke="#4F43D1" stroke-miterlimit="10" stroke-linecap="round" stroke-linejoin="round"/>
<path d="M4.30859 4.97523L2.89319 3.77064" stroke="#4F43D1" stroke-miterlimit="10" stroke-linecap="round" stroke-linejoin="round"/>
<path d="M3.07395 7.5651L1.23694 7.17361" stroke="#4F43D1" stroke-miterlimit="10" stroke-linecap="round" stroke-linejoin="round"/>
<path d="M3.16435 10.426L1.38757 10.938" stroke="#4F43D1" stroke-miterlimit="10" stroke-linecap="round" stroke-linejoin="round"/>
<path d="M4.63996 12.8954L3.28479 14.1904" stroke="#4F43D1" stroke-miterlimit="10" stroke-linecap="round" stroke-linejoin="round"/>
<path d="M7.07923 14.4011L6.47693 16.1779" stroke="#4F43D1" stroke-miterlimit="10" stroke-linecap="round" stroke-linejoin="round"/>
<path d="M9.94006 14.5819L10.2412 16.449" stroke="#4F43D1" stroke-miterlimit="10" stroke-linecap="round" stroke-linejoin="round"/>
<path d="M12.53 13.4074L13.7045 14.883" stroke="#4F43D1" stroke-miterlimit="10" stroke-linecap="round" stroke-linejoin="round"/>
<path d="M14.3068 11.1487L16.0233 11.9016" stroke="#4F43D1" stroke-miterlimit="10" stroke-linecap="round" stroke-linejoin="round"/>
<path d="M14.7887 8.31797L16.6558 8.19751" stroke="#4F43D1" stroke-miterlimit="10" stroke-linecap="round" stroke-linejoin="round"/>
</svg>
