<svg width="84" height="84" viewBox="0 0 84 84" fill="none" xmlns="http://www.w3.org/2000/svg">
<path d="M41.2537 64.2333C53.5948 64.2333 63.5993 54.2288 63.5993 41.8877C63.5993 29.5466 53.5948 19.5421 41.2537 19.5421C28.9126 19.5421 18.9081 29.5466 18.9081 41.8877C18.9081 54.2288 28.9126 64.2333 41.2537 64.2333Z" fill="#FCB223"/>
<path d="M68.6707 26.9906L77.3871 22.3947" stroke="#FCB223" stroke-width="2" stroke-miterlimit="10" stroke-linecap="round" stroke-linejoin="round"/>
<path d="M58.5279 15.8971L64.0747 7.65613" stroke="#FCB223" stroke-width="2" stroke-miterlimit="10" stroke-linecap="round" stroke-linejoin="round"/>
<path d="M44.2649 10.8257L45.3743 1" stroke="#FCB223" stroke-width="2" stroke-miterlimit="10" stroke-linecap="round" stroke-linejoin="round"/>
<path d="M29.3679 12.886L25.7229 3.85266" stroke="#FCB223" stroke-width="2" stroke-miterlimit="10" stroke-linecap="round" stroke-linejoin="round"/>
<path d="M17.1648 21.9193L9.71632 15.5801" stroke="#FCB223" stroke-width="2" stroke-miterlimit="10" stroke-linecap="round" stroke-linejoin="round"/>
<path d="M10.6672 35.5485L1 33.4883" stroke="#FCB223" stroke-width="2" stroke-miterlimit="10" stroke-linecap="round" stroke-linejoin="round"/>
<path d="M11.1427 50.604L1.7924 53.2982" stroke="#FCB223" stroke-width="2" stroke-miterlimit="10" stroke-linecap="round" stroke-linejoin="round"/>
<path d="M18.9083 63.5994L11.7767 70.414" stroke="#FCB223" stroke-width="2" stroke-miterlimit="10" stroke-linecap="round" stroke-linejoin="round"/>
<path d="M31.745 71.5233L28.5754 80.8736" stroke="#FCB223" stroke-width="2" stroke-miterlimit="10" stroke-linecap="round" stroke-linejoin="round"/>
<path d="M46.8006 72.4742L48.3854 82.3" stroke="#FCB223" stroke-width="2" stroke-miterlimit="10" stroke-linecap="round" stroke-linejoin="round"/>
<path d="M60.4298 66.2935L66.6105 74.059" stroke="#FCB223" stroke-width="2" stroke-miterlimit="10" stroke-linecap="round" stroke-linejoin="round"/>
<path d="M69.78 54.4076L78.8134 58.3695" stroke="#FCB223" stroke-width="2" stroke-miterlimit="10" stroke-linecap="round" stroke-linejoin="round"/>
<path d="M72.3158 39.5105L82.1416 38.8766" stroke="#FCB223" stroke-width="2" stroke-miterlimit="10" stroke-linecap="round" stroke-linejoin="round"/>
</svg>
