<svg width="80" height="65" viewBox="0 0 80 65" fill="none" xmlns="http://www.w3.org/2000/svg">
<path d="M26.1 1.89999V7.09999" stroke="#FCB223" stroke-width="2" stroke-miterlimit="10" stroke-linecap="round" stroke-linejoin="round"/>
<path d="M14 6.09999L16.5 10.4" stroke="#FCB223" stroke-width="2" stroke-miterlimit="10" stroke-linecap="round" stroke-linejoin="round"/>
<path d="M1.9 27H6.9" stroke="#FCB223" stroke-width="2" stroke-miterlimit="10" stroke-linecap="round" stroke-linejoin="round"/>
<path d="M35.7 10.4L38.2 6.09999" stroke="#FCB223" stroke-width="2" stroke-miterlimit="10" stroke-linecap="round" stroke-linejoin="round"/>
<path d="M4.3 14.5L8.8 17" stroke="#FCB223" stroke-width="2" stroke-miterlimit="10" stroke-linecap="round" stroke-linejoin="round"/>
<path d="M4.3 39.6L8.8 37" stroke="#FCB223" stroke-width="2" stroke-miterlimit="10" stroke-linecap="round" stroke-linejoin="round"/>
<path d="M24.9 28.1C25.4 28.1 25.9 28.1 26.5 28.2C27.2 22.8 30.5 18.2 35.1 15.6C32.6 13.7 29.5 12.5 26.2 12.5C18.2 12.5 11.7 19 11.7 27C11.7 30.8 13.2 34.2 15.6 36.8C15.9 32 19.9 28.1 24.9 28.1Z" fill="#FCB223"/>
<path d="M61.7 30.9C61.3 30.9 60.9 30.9 60.5 31C60.5 30.9 60.5 30.7 60.5 30.6C60.5 21.2 52.8 13.5 43.4 13.5C34.7 13.5 27.6 19.9 26.5 28.3C26 28.2 25.5 28.2 24.9 28.2C19.7 28.2 15.5 32.4 15.5 37.6C15.5 37.9 15.5 38.2 15.5 38.4C14.9 38.3 14.3 38.3 13.7 38.3C7 38.3 1.5 43.8 1.5 50.5C1.5 57.2 7 62.7 13.7 62.7C20.4 62.7 53.1 62.7 61.7 62.7C70.5 62.7 77.6 55.6 77.6 46.8C77.6 38 70.5 30.9 61.7 30.9Z" stroke="white" stroke-width="3" stroke-miterlimit="10" stroke-linecap="round" stroke-linejoin="round"/>
</svg>
