<svg width="80" height="53" viewBox="0 0 80 53" fill="none" xmlns="http://www.w3.org/2000/svg">
<path d="M62.2 19.4C61.8 19.4 61.4 19.4 61 19.5C61 19.4 61 19.2 61 19.1C61 9.70001 53.3 2 43.9 2C35.2 2 28.1 8.4 27 16.8C26.5 16.7 26 16.7 25.4 16.7C20.2 16.7 16 20.9 16 26.1C16 26.4 16 26.7 16 26.9C15.4 26.8 14.8 26.8 14.2 26.8C7.5 26.8 2 32.3 2 39C2 45.7 7.5 51.2 14.2 51.2C20.9 51.2 53.6 51.2 62.2 51.2C71 51.2 78.1 44.1 78.1 35.3C78.1 26.5 71 19.4 62.2 19.4Z" stroke="white" stroke-width="3" stroke-miterlimit="10" stroke-linecap="round" stroke-linejoin="round"/>
</svg>
