<svg width="94" height="57" viewBox="0 0 94 57" fill="none" xmlns="http://www.w3.org/2000/svg">
<path d="M54.9 6.2C47.6 7.5 41.9 13.4 40.9 20.7C40.4 20.6 39.9 20.6 39.3 20.6C34.1 20.6 29.9 24.8 29.9 30C29.9 30.3 29.9 30.6 29.9 30.8C29.3 30.7 28.7 30.7 28.1 30.7C21.3 30.7 15.9 36.2 15.9 42.9C15.9 45.2 16.6 47.4 17.7 49.3H12.1C5.4 49.3 -0.0999985 43.8 -0.0999985 37.1C-0.0999985 30.4 5.4 24.9 12.1 24.9C12.7 24.9 13.3 25 13.9 25C13.9 24.7 13.9 24.4 13.9 24.2C13.9 19 18.1 14.8 23.3 14.8C23.8 14.8 24.4 14.8 24.9 14.9C26 6.59999 33.2 0.100006 41.8 0.100006C47.1 0.200006 51.8 2.5 54.9 6.2Z" fill="black"/>
<path d="M92.1 39.3C92.1 48.1 85 55.2 76.2 55.2H28.2C23.8 55.2 20 52.9 17.8 49.4C16.7 47.5 16 45.3 16 43C16 36.3 21.5 30.8 28.2 30.8C28.8 30.8 29.4 30.8 30 30.9C30 30.6 30 30.4 30 30.1C30 24.9 34.2 20.7 39.4 20.7C39.9 20.7 40.4 20.8 41 20.8C42 13.4 47.7 7.5 55 6.3C56 6.1 57 6 58 6C67.5 6 75.1 13.6 75.1 23.1C75.1 23.2 75.1 23.4 75.1 23.5C75.5 23.5 75.9 23.4 76.3 23.4C85 23.4 92.1 30.5 92.1 39.3Z" stroke="white" stroke-width="3" stroke-miterlimit="10" stroke-linecap="round" stroke-linejoin="round"/>
</svg>
