<svg width="80" height="53" viewBox="0 0 80 53" fill="none" xmlns="http://www.w3.org/2000/svg">
<path d="M25.5 16.1C26 16.1 26.5 16.1 27.1 16.2C27.8 10.8 31.1 6.2 35.7 3.6C33.2 1.7 30.1 0.5 26.8 0.5C18.8 0.5 12.3 7 12.3 15C12.3 18.8 13.8 22.2 16.2 24.8C16.5 20 20.5 16.1 25.5 16.1Z" fill="#464138"/>
<path d="M62.3 18.9C61.9 18.9 61.5 18.9 61.1 19C61.1 18.9 61.1 18.7 61.1 18.6C61.1 9.20001 53.4 1.5 44 1.5C35.3 1.5 28.2 7.9 27.1 16.3C26.6 16.2 26.1 16.2 25.5 16.2C20.3 16.2 16.1 20.4 16.1 25.6C16.1 25.9 16.1 26.2 16.1 26.4C15.5 26.3 14.9 26.3 14.3 26.3C7.60001 26.3 2.10001 31.8 2.10001 38.5C2.10001 45.2 7.60001 50.7 14.3 50.7C21 50.7 53.7 50.7 62.3 50.7C71.1 50.7 78.2 43.6 78.2 34.8C78.2 26 71.1 18.9 62.3 18.9Z" stroke="white" stroke-width="3" stroke-miterlimit="10" stroke-linecap="round" stroke-linejoin="round"/>
</svg>
