<svg width="94" height="83" viewBox="0 0 94 83" fill="none" xmlns="http://www.w3.org/2000/svg">
<path d="M33.9 63.6L29.4 70.6" stroke="white" stroke-width="3" stroke-miterlimit="10" stroke-linecap="round" stroke-linejoin="round"/>
<path d="M52.7 63.6L48.2 70.6" stroke="white" stroke-width="3" stroke-miterlimit="10" stroke-linecap="round" stroke-linejoin="round"/>
<path d="M71.5 63.6L67 70.6" stroke="white" stroke-width="3" stroke-miterlimit="10" stroke-linecap="round" stroke-linejoin="round"/>
<path d="M38.9 74.2L34.4 81.2" stroke="white" stroke-width="3" stroke-miterlimit="10" stroke-linecap="round" stroke-linejoin="round"/>
<path d="M57.7 74.2L53.2 81.2" stroke="white" stroke-width="3" stroke-miterlimit="10" stroke-linecap="round" stroke-linejoin="round"/>
<path d="M54.9 6.89999C47.6 8.19999 41.9 14 40.9 21.4C40.4 21.3 39.9 21.3 39.3 21.3C34.1 21.3 29.9 25.5 29.9 30.7C29.9 31 29.9 31.3 29.9 31.5C29.3 31.4 28.7 31.4 28.1 31.4C21.3 31.4 15.9 36.9 15.9 43.6C15.9 46 16.6 48.2 17.7 50H12.1C5.5 50 0 44.6 0 37.8C0 31.1 5.5 25.6 12.2 25.6C12.8 25.6 13.4 25.6 14 25.7C14 25.4 14 25.1 14 24.9C14 19.7 18.2 15.5 23.4 15.5C23.9 15.5 24.5 15.5 25 15.6C26.1 7.30001 33.3 0.799988 41.9 0.799988C47.1 0.799988 51.8 3.19999 54.9 6.89999Z" fill="black"/>
<path d="M92.1 40C92.1 48.8 85 55.9 76.2 55.9H28.2C23.8 55.9 20 53.6 17.8 50.1C16.7 48.2 16 46 16 43.7C16 37 21.5 31.5 28.2 31.5C28.8 31.5 29.4 31.6 30 31.6C30 31.3 30 31.1 30 30.8C30 25.6 34.2 21.4 39.4 21.4C39.9 21.4 40.4 21.4 41 21.5C42 14.1 47.7 8.2 55 7C56 6.8 57 6.70001 58 6.70001C67.5 6.70001 75.1 14.3 75.1 23.8C75.1 23.9 75.1 24.1 75.1 24.2C75.5 24.2 75.9 24.2 76.3 24.2C85 24.1 92.1 31.2 92.1 40Z" stroke="white" stroke-width="3" stroke-miterlimit="10" stroke-linecap="round" stroke-linejoin="round"/>
</svg>
