<svg width="80" height="89" viewBox="0 0 80 89" fill="none" xmlns="http://www.w3.org/2000/svg">
<path d="M20.2 69.7L15.7 76.7" stroke="white" stroke-width="3" stroke-miterlimit="10" stroke-linecap="round" stroke-linejoin="round"/>
<path d="M39.1 69.7L34.6 76.7" stroke="white" stroke-width="3" stroke-miterlimit="10" stroke-linecap="round" stroke-linejoin="round"/>
<path d="M57.9 69.7L53.4 76.7" stroke="white" stroke-width="3" stroke-miterlimit="10" stroke-linecap="round" stroke-linejoin="round"/>
<path d="M25.2 80.4L20.7 87.4" stroke="white" stroke-width="3" stroke-miterlimit="10" stroke-linecap="round" stroke-linejoin="round"/>
<path d="M44.1 80.4L39.6 87.4" stroke="white" stroke-width="3" stroke-miterlimit="10" stroke-linecap="round" stroke-linejoin="round"/>
<path d="M27 1.5V6.7" stroke="#FCB223" stroke-width="2" stroke-miterlimit="10" stroke-linecap="round" stroke-linejoin="round"/>
<path d="M14.9 5.70001L17.4 10" stroke="#FCB223" stroke-width="2" stroke-miterlimit="10" stroke-linecap="round" stroke-linejoin="round"/>
<path d="M2.8 26.7H7.8" stroke="#FCB223" stroke-width="2" stroke-miterlimit="10" stroke-linecap="round" stroke-linejoin="round"/>
<path d="M36.6 10L39.1 5.70001" stroke="#FCB223" stroke-width="2" stroke-miterlimit="10" stroke-linecap="round" stroke-linejoin="round"/>
<path d="M5.2 14.1L9.7 16.7" stroke="#FCB223" stroke-width="2" stroke-miterlimit="10" stroke-linecap="round" stroke-linejoin="round"/>
<path d="M5.2 39.2L9.7 36.6" stroke="#FCB223" stroke-width="2" stroke-miterlimit="10" stroke-linecap="round" stroke-linejoin="round"/>
<path d="M25.8 27.8C26.3 27.8 26.8 27.8 27.4 27.9C28.1 22.5 31.4 17.9 36 15.3C33.5 13.4 30.4 12.2 27.1 12.2C19.1 12.2 12.6 18.7 12.6 26.7C12.6 30.5 14.1 33.9 16.5 36.5C16.7 31.6 20.8 27.8 25.8 27.8Z" fill="#FCB223"/>
<path d="M62.6 30.5C62.2 30.5 61.8 30.5 61.4 30.6C61.4 30.5 61.4 30.3 61.4 30.2C61.4 20.8 53.7 13.1 44.3 13.1C35.6 13.1 28.5 19.5 27.4 27.9C26.9 27.8 26.4 27.8 25.8 27.8C20.6 27.8 16.4 32 16.4 37.2C16.4 37.5 16.4 37.8 16.4 38C15.8 37.9 15.2 37.9 14.6 37.9C7.9 37.9 2.4 43.4 2.4 50.1C2.4 56.8 7.9 62.3 14.6 62.3C21.3 62.3 54 62.3 62.6 62.3C71.4 62.3 78.5 55.2 78.5 46.4C78.5 37.6 71.3 30.5 62.6 30.5Z" stroke="white" stroke-width="3" stroke-miterlimit="10" stroke-linecap="round" stroke-linejoin="round"/>
</svg>
