<svg width="80" height="78" viewBox="0 0 80 78" fill="none" xmlns="http://www.w3.org/2000/svg">
<path d="M19.8 58.7L15.3 65.7" stroke="white" stroke-width="3" stroke-miterlimit="10" stroke-linecap="round" stroke-linejoin="round"/>
<path d="M38.7 58.7L34.2 65.7" stroke="white" stroke-width="3" stroke-miterlimit="10" stroke-linecap="round" stroke-linejoin="round"/>
<path d="M57.5 58.7L53 65.7" stroke="white" stroke-width="3" stroke-miterlimit="10" stroke-linecap="round" stroke-linejoin="round"/>
<path d="M24.8 69.4L20.3 76.4" stroke="white" stroke-width="3" stroke-miterlimit="10" stroke-linecap="round" stroke-linejoin="round"/>
<path d="M43.7 69.4L39.2 76.4" stroke="white" stroke-width="3" stroke-miterlimit="10" stroke-linecap="round" stroke-linejoin="round"/>
<path d="M25.4 16.8C25.9 16.8 26.4 16.8 27 16.9C27.7 11.5 31 6.90001 35.6 4.30001C33.1 2.40001 30 1.20001 26.7 1.20001C18.7 1.20001 12.2 7.70001 12.2 15.7C12.2 19.5 13.7 22.9 16.1 25.5C16.3 20.6 20.4 16.8 25.4 16.8Z" fill="#464138"/>
<path d="M62.2 19.5C61.8 19.5 61.4 19.5 61 19.6C61 19.5 61 19.3 61 19.2C61 9.80001 53.3 2.10001 43.9 2.10001C35.2 2.10001 28.1 8.50001 27 16.9C26.5 16.8 26 16.8 25.4 16.8C20.2 16.8 16 21 16 26.2C16 26.5 16 26.8 16 27C15.4 26.9 14.8 26.9 14.2 26.9C7.5 26.9 2 32.4 2 39.1C2 45.8 7.5 51.3 14.2 51.3C20.9 51.3 53.6 51.3 62.2 51.3C71 51.3 78.1 44.2 78.1 35.4C78.1 26.6 70.9 19.5 62.2 19.5Z" stroke="white" stroke-width="3" stroke-miterlimit="10" stroke-linecap="round" stroke-linejoin="round"/>
</svg>
