<svg width="94" height="83" viewBox="0 0 94 83" fill="none" xmlns="http://www.w3.org/2000/svg">
<path d="M54.9 7C47.6 8.3 41.9 14.1 40.9 21.5C40.4 21.4 39.9 21.4 39.3 21.4C34.1 21.4 29.9 25.6 29.9 30.8C29.9 31.1 29.9 31.4 29.9 31.6C29.3 31.5 28.7 31.5 28.1 31.5C21.3 31.5 15.9 37 15.9 43.7C15.9 46 16.6 48.2 17.7 50.1H12.1C5.4 50.1 -0.0999985 44.6 -0.0999985 37.9C-0.0999985 31.2 5.4 25.7 12.1 25.7C12.7 25.7 13.3 25.7 13.9 25.8C13.9 25.5 13.9 25.3 13.9 25C13.9 19.8 18.1 15.6 23.3 15.6C23.8 15.6 24.4 15.6 24.9 15.7C26 7.40001 33.2 0.899994 41.8 0.899994C47.1 0.899994 51.8 3.3 54.9 7Z" fill="black"/>
<path d="M92.1 40.1C92.1 48.9 85 56 76.2 56H28.2C23.8 56 20 53.7 17.8 50.2C16.7 48.3 16 46.1 16 43.8C16 37.1 21.5 31.6 28.2 31.6C28.8 31.6 29.4 31.7 30 31.7C30 31.4 30 31.2 30 30.9C30 25.7 34.2 21.5 39.4 21.5C39.9 21.5 40.4 21.6 41 21.6C42 14.2 47.7 8.30001 55 7.10001C56 6.90001 57 6.79999 58 6.79999C67.5 6.79999 75.1 14.4 75.1 23.9C75.1 24 75.1 24.2 75.1 24.3C75.5 24.3 75.9 24.2 76.3 24.2C85 24.2 92.1 31.3 92.1 40.1Z" stroke="white" stroke-width="3" stroke-miterlimit="10" stroke-linecap="round" stroke-linejoin="round"/>
<path d="M49.6 41.7H62.1C62.3 41.7 62.4 41.8 62.5 41.9L73.9 62.4C74.1 62.7 73.9 63.1 73.5 63.1H63.8C63.5 63.1 63.3 63.4 63.4 63.7L72.7 82.3C72.9 82.8 72.3 83.2 72 82.8L50.9 58.4C50.7 58.1 50.9 57.7 51.2 57.7H60.6C61 57.7 61.2 57.3 60.9 57L49.3 42.6C49.1 42.1 49.3 41.7 49.6 41.7Z" fill="#FCB223"/>
</svg>
